# xmcd
#
# Track frame offsets: 
#        150
#        18528
#        35951
#        53371
#        62894
#        84329
#        101144
#        115680
#        124751
#        141647
#        154259
#        172344
#
# Disc length: 2476 seconds
#
# Revision: 1
# Processed by: cddbd v1.5.2PL0 Copyright (c) Steve Scherf et al.
# Submitted via: ExactAudioCopy v0.95b2
#
DISCID=ad09aa0c
DTITLE=The Duhks - Fast Paced World
DYEAR=2008
DGENRE=Folk
TTITLE0=Mighty Storm
TTITLE1=Fast Paced World
TTITLE2=This Fall
TTITLE3=Adam's 3-Step
TTITLE4=Toujours Vouloir
TTITLE5=You Don't See It
TTITLE6=Ship High In Transit
TTITLE7=Magalenha
TTITLE8=Sleepin' Is All I Wanna Do (Stars On A Sunny Day)
TTITLE9=95 South
TTITLE10=New Rigged Ship
TTITLE11=I See You
EXTD=
EXTT0=
EXTT1=
EXTT2=
EXTT3=
EXTT4=
EXTT5=
EXTT6=
EXTT7=
EXTT8=
EXTT9=
EXTT10=
EXTT11=
PLAYORDER=
